<svg xmlns="http://www.w3.org/2000/svg" viewBox="0 0 24 24" fill="#d97757">
<path d="M12 12C11.25 9.6 10.7 7.1 10.85 4.6C10.92 3.3 11.35 2.35 12 2.35C12.65 2.35 13.08 3.3 13.15 4.6C13.3 7.1 12.75 9.6 12 12Z"/>
<path d="M12 12C11.25 9.6 10.7 7.1 10.85 4.6C10.92 3.3 11.35 2.35 12 2.35C12.65 2.35 13.08 3.3 13.15 4.6C13.3 7.1 12.75 9.6 12 12Z" transform="rotate(51.43 12 12)"/>
<path d="M12 12C11.25 9.6 10.7 7.1 10.85 4.6C10.92 3.3 11.35 2.35 12 2.35C12.65 2.35 13.08 3.3 13.15 4.6C13.3 7.1 12.75 9.6 12 12Z" transform="rotate(102.86 12 12)"/>
<path d="M12 12C11.25 9.6 10.7 7.1 10.85 4.6C10.92 3.3 11.35 2.35 12 2.35C12.65 2.35 13.08 3.3 13.15 4.6C13.3 7.1 12.75 9.6 12 12Z" transform="rotate(154.29 12 12)"/>
<path d="M12 12C11.25 9.6 10.7 7.1 10.85 4.6C10.92 3.3 11.35 2.35 12 2.35C12.65 2.35 13.08 3.3 13.15 4.6C13.3 7.1 12.75 9.6 12 12Z" transform="rotate(205.71 12 12)"/>
<path d="M12 12C11.25 9.6 10.7 7.1 10.85 4.6C10.92 3.3 11.35 2.35 12 2.35C12.65 2.35 13.08 3.3 13.15 4.6C13.3 7.1 12.75 9.6 12 12Z" transform="rotate(257.14 12 12)"/>
<path d="M12 12C11.25 9.6 10.7 7.1 10.85 4.6C10.92 3.3 11.35 2.35 12 2.35C12.65 2.35 13.08 3.3 13.15 4.6C13.3 7.1 12.75 9.6 12 12Z" transform="rotate(308.57 12 12)"/>
</svg>