<svg xmlns="http://www.w3.org/2000/svg" width="1000" height="1000" viewBox="0 0 1000 1000"><g fill="#1c1b19"><circle cx="374.31" cy="431.99" r="27" fill-opacity="0.38"/><circle cx="494.25" cy="626.89" r="27.39" fill-opacity="0.38"/><circle cx="487.8" cy="639.48" r="28.88" fill-opacity="0.38"/><circle cx="430.12" cy="497.98" r="34.94" fill-opacity="0.38"/><circle cx="607.4" cy="453.1" r="30.29" fill-opacity="0.38"/><circle cx="670.53" cy="624.15" r="36.47" fill-opacity="0.38"/><circle cx="709.4" cy="464.84" r="30.62" fill-opacity="0.38"/><circle cx="611.24" cy="563.8" r="30.69" fill-opacity="0.38"/><circle cx="744.45" cy="473.93" r="31.3" fill-opacity="0.38"/><circle cx="721.95" cy="473.71" r="32.27" fill-opacity="0.38"/><circle cx="212" cy="320.67" r="42.26" fill-opacity="0.393"/><circle cx="277.39" cy="575.67" r="31.93" fill-opacity="0.38"/><circle cx="350.22" cy="240.18" r="32.41" fill-opacity="0.38"/><circle cx="639.18" cy="479.71" r="32.5" fill-opacity="0.38"/><circle cx="836.71" cy="564.81" r="32.75" fill-opacity="0.38"/><circle cx="114.39" cy="548.38" r="47.05" fill-opacity="0.472"/><circle cx="564.29" cy="171.13" r="47.47" fill-opacity="0.479"/><circle cx="219.79" cy="653.86" r="33.71" fill-opacity="0.38"/><circle cx="415.62" cy="788.75" r="33.79" fill-opacity="0.38"/><circle cx="590.89" cy="695.6" r="34.82" fill-opacity="0.38"/><circle cx="446.89" cy="166.06" r="34.28" fill-opacity="0.38"/><circle cx="552.83" cy="718.38" r="51.94" fill-opacity="0.547"/><circle cx="134.53" cy="250.46" r="35.08" fill-opacity="0.38"/><circle cx="519.81" cy="714.83" r="52.88" fill-opacity="0.561"/><circle cx="348.64" cy="700.57" r="35.59" fill-opacity="0.38"/><circle cx="559.08" cy="775.51" r="35.67" fill-opacity="0.38"/><circle cx="765.14" cy="254.17" r="36.15" fill-opacity="0.38"/><circle cx="605.5" cy="284.53" r="39.07" fill-opacity="0.38"/><circle cx="711.51" cy="711.4" r="35.86" fill-opacity="0.38"/><circle cx="179.21" cy="518.4" r="37.24" fill-opacity="0.38"/><circle cx="771.35" cy="549.09" r="36.45" fill-opacity="0.38"/><circle cx="176.86" cy="713.71" r="36.8" fill-opacity="0.38"/><circle cx="201.22" cy="327.82" r="37.84" fill-opacity="0.38"/><circle cx="884.47" cy="255.56" r="40.33" fill-opacity="0.38"/><circle cx="257.09" cy="300.67" r="37.59" fill-opacity="0.38"/><circle cx="376.31" cy="734.44" r="38.54" fill-opacity="0.38"/><circle cx="662.31" cy="231.02" r="37.94" fill-opacity="0.38"/><circle cx="639.42" cy="763.95" r="41.63" fill-opacity="0.38"/><circle cx="765" cy="587.74" r="46.27" fill-opacity="0.444"/><circle cx="407.56" cy="512.84" r="39.27" fill-opacity="0.38"/><circle cx="541.48" cy="659.14" r="39.23" fill-opacity="0.38"/><circle cx="381.15" cy="607.29" r="39.57" fill-opacity="0.38"/><circle cx="662.92" cy="892.89" r="39.7" fill-opacity="0.38"/><circle cx="248.23" cy="313.45" r="39.92" fill-opacity="0.38"/><circle cx="576.81" cy="129.12" r="61.72" fill-opacity="0.696"/><circle cx="155.05" cy="591.69" r="40.13" fill-opacity="0.38"/><circle cx="593.01" cy="850.6" r="40.16" fill-opacity="0.38"/><circle cx="481.61" cy="574.01" r="40.19" fill-opacity="0.38"/><circle cx="191.51" cy="558.26" r="40.26" fill-opacity="0.38"/><circle cx="192.56" cy="702.25" r="40.47" fill-opacity="0.38"/><circle cx="457.92" cy="789.64" r="40.69" fill-opacity="0.38"/><circle cx="123.4" cy="356.55" r="40.93" fill-opacity="0.38"/><circle cx="625.43" cy="722.79" r="41.12" fill-opacity="0.38"/><circle cx="558.31" cy="732.2" r="44.2" fill-opacity="0.39"/><circle cx="503.12" cy="740.15" r="55.31" fill-opacity="0.598"/><circle cx="336.48" cy="482.59" r="42.52" fill-opacity="0.38"/><circle cx="632.37" cy="606.77" r="41.37" fill-opacity="0.38"/><circle cx="332.11" cy="479.56" r="41.43" fill-opacity="0.38"/><circle cx="234.28" cy="168.39" r="41.48" fill-opacity="0.38"/><circle cx="423.96" cy="209.81" r="41.87" fill-opacity="0.38"/><circle cx="215.64" cy="226.73" r="42.55" fill-opacity="0.38"/><circle cx="847.57" cy="778.53" r="42.18" fill-opacity="0.38"/><circle cx="686.24" cy="311.78" r="42.44" fill-opacity="0.38"/><circle cx="242.76" cy="749.43" r="45.01" fill-opacity="0.395"/><circle cx="400.29" cy="468.29" r="42.9" fill-opacity="0.38"/><circle cx="73.12" cy="410.29" r="43.12" fill-opacity="0.38"/><circle cx="370.74" cy="254.86" r="65.69" fill-opacity="0.763"/><circle cx="497.6" cy="884.23" r="43.47" fill-opacity="0.38"/><circle cx="641.21" cy="864.79" r="49.84" fill-opacity="0.506"/><circle cx="610.26" cy="491.15" r="49.84" fill-opacity="0.506"/><circle cx="336.84" cy="482.97" r="43.66" fill-opacity="0.38"/><circle cx="383" cy="456.4" r="43.73" fill-opacity="0.38"/><circle cx="878.42" cy="501.67" r="43.85" fill-opacity="0.38"/><circle cx="667.52" cy="283.04" r="43.96" fill-opacity="0.38"/><circle cx="572.34" cy="140.55" r="45.31" fill-opacity="0.38"/><circle cx="804.16" cy="364.75" r="44.4" fill-opacity="0.38"/><circle cx="627.26" cy="475.86" r="45.93" fill-opacity="0.382"/><circle cx="558" cy="484.84" r="44.86" fill-opacity="0.38"/><circle cx="785.6" cy="419.4" r="44.96" fill-opacity="0.38"/><circle cx="207.51" cy="438.55" r="45.17" fill-opacity="0.38"/><circle cx="549.44" cy="479.05" r="75.14" fill-opacity="0.906"/><circle cx="456.38" cy="741.14" r="65.37" fill-opacity="0.769"/><circle cx="788.98" cy="764.62" r="46.5" fill-opacity="0.38"/><circle cx="702.44" cy="312.15" r="53.73" fill-opacity="0.58"/><circle cx="809.7" cy="425.58" r="47.63" fill-opacity="0.38"/><circle cx="529.66" cy="357.07" r="47.66" fill-opacity="0.38"/><circle cx="890.21" cy="510.11" r="79.79" fill-opacity="0.985"/><circle cx="403.12" cy="576.12" r="49.01" fill-opacity="0.38"/><circle cx="377.51" cy="515.9" r="49.97" fill-opacity="0.42"/><circle cx="381.66" cy="557.54" r="56.35" fill-opacity="0.632"/></g></svg>
